<svg width="39" height="35" viewBox="0 0 39 35" fill="none" xmlns="http://www.w3.org/2000/svg">
<path d="M19.7 33.67L19.04 33.12C4.85 21.57 1 17.5 1 10.9C1 5.4 5.4 1 10.9 1C15.41 1 17.94 3.53 19.7 5.51C21.46 3.53 23.99 1 28.5 1C34 1 38.4 5.4 38.4 10.9C38.4 17.5 34.55 21.57 20.36 33.12L19.7 33.67ZM10.9 3.2C6.61 3.2 3.2 6.61 3.2 10.9C3.2 16.51 6.72 20.25 19.7 30.81C32.68 20.25 36.2 16.51 36.2 10.9C36.2 6.61 32.79 3.2 28.5 3.2C24.65 3.2 22.56 5.51 20.91 7.38L19.7 8.81L18.49 7.38C16.84 5.51 14.75 3.2 10.9 3.2Z" fill="#4A494A" stroke="#4A494A"/>
</svg>
