<svg width="26" height="27" viewBox="0 0 26 27" fill="none" xmlns="http://www.w3.org/2000/svg">
<path d="M20.633 10.8515C20.633 16.2842 16.2298 20.703 10.8173 20.703C5.40399 20.703 1 16.2834 1 10.8515C1 5.41963 5.40399 1.00002 10.8173 1.00002C16.2298 1.00002 20.633 5.41963 20.633 10.8515V10.8515ZM1.70773 10.8515C1.70773 15.8927 5.79485 19.9934 10.8181 19.9934C15.8405 19.9934 19.9269 15.8927 19.9269 10.8515C19.9269 5.81033 15.8405 1.70958 10.8181 1.70958C5.79485 1.70958 1.70773 5.81033 1.70773 10.8515Z" fill="#4A494A" stroke="#4A494A" stroke-width="1.8"/>
<path d="M24.9781 25.1631C24.9824 25.2192 24.9713 25.2753 24.9464 25.3237C24.9215 25.3721 24.8838 25.4107 24.8385 25.4344C24.7931 25.458 24.7421 25.4656 24.6924 25.4561C24.6426 25.4465 24.5963 25.4204 24.5596 25.3811L17.4063 17.6416C17.3617 17.5893 17.3367 17.5201 17.3363 17.4484C17.336 17.3768 17.3605 17.3083 17.4046 17.2571C17.4488 17.206 17.5092 17.1762 17.5732 17.174C17.6373 17.1718 17.7 17.1973 17.7484 17.2453L24.9018 24.9854C24.9457 25.0325 24.9728 25.0958 24.9781 25.1631V25.1631Z" fill="#4A494A" stroke="#4A494A" stroke-width="1.8"/>
</svg>
