<svg width="25" height="25" viewBox="0 0 25 25" fill="none" xmlns="http://www.w3.org/2000/svg">
<path d="M1.375 17.1944C3.08333 17.1944 4.73611 16.9167 6.27778 16.4167C6.5193 16.3348 6.779 16.3226 7.0271 16.3816C7.27521 16.4406 7.50168 16.5682 7.68056 16.75L9.86111 19.4861C13.7917 17.6111 17.4722 14.0694 19.4306 10L16.7222 7.69444C16.3472 7.30556 16.2361 6.76389 16.3889 6.27778C16.9028 4.73611 17.1667 3.08333 17.1667 1.375C17.1667 0.625 17.7917 0 18.5417 0H23.3472C24.0972 0 25 0.333333 25 1.375C25 14.2778 14.2639 25 1.375 25C0.38889 25 9.53674e-07 24.125 9.53674e-07 23.3611V18.5694C9.53674e-07 17.8194 0.625001 17.1944 1.375 17.1944Z" fill="#4A494A"/>
</svg>
