<svg width="30" height="30" viewBox="0 0 30 30" fill="none" xmlns="http://www.w3.org/2000/svg">
<path d="M20.625 14.25V12.375H19.6875V14.25H17.8125V15.1875H19.6875V17.0625H20.625V15.1875H22.5V14.25H20.625ZM12.1875 14.25V16.125H14.8395C14.6449 16.6729 14.2855 17.1472 13.8107 17.4829C13.3359 17.8186 12.769 17.9992 12.1875 18C11.4418 17.9992 10.7269 17.7026 10.1996 17.1754C9.67237 16.6481 9.37579 15.9332 9.375 15.1875C9.375 13.6365 10.6365 12.375 12.1875 12.375C12.8595 12.375 13.5075 12.615 14.0085 13.0545L15.2415 11.64C14.3946 10.9036 13.3098 10.4986 12.1875 10.5C10.9448 10.5016 9.75342 10.996 8.87469 11.8747C7.99596 12.7534 7.50159 13.9448 7.5 15.1875C7.50159 16.4302 7.99596 17.6216 8.87469 18.5003C9.75342 19.379 10.9448 19.8734 12.1875 19.875C13.4302 19.8734 14.6216 19.379 15.5003 18.5003C16.379 17.6216 16.8734 16.4302 16.875 15.1875V14.25H12.1875Z" fill="white"/>
<path d="M6 3C5.20435 3 4.44129 3.31607 3.87868 3.87868C3.31607 4.44129 3 5.20435 3 6V24C3 24.7956 3.31607 25.5587 3.87868 26.1213C4.44129 26.6839 5.20435 27 6 27H24C24.7956 27 25.5587 26.6839 26.1213 26.1213C26.6839 25.5587 27 24.7956 27 24V6C27 5.20435 26.6839 4.44129 26.1213 3.87868C25.5587 3.31607 24.7956 3 24 3H6ZM6 0H24C25.5913 0 27.1174 0.632141 28.2426 1.75736C29.3679 2.88258 30 4.4087 30 6V24C30 25.5913 29.3679 27.1174 28.2426 28.2426C27.1174 29.3679 25.5913 30 24 30H6C4.4087 30 2.88258 29.3679 1.75736 28.2426C0.632141 27.1174 0 25.5913 0 24V6C0 4.4087 0.632141 2.88258 1.75736 1.75736C2.88258 0.632141 4.4087 0 6 0V0Z" fill="white"/>
</svg>
