<svg width="20" height="20" viewBox="0 0 20 20" fill="none" xmlns="http://www.w3.org/2000/svg">
<path d="M13.75 9.5V8.25H13.125V9.5H11.875V10.125H13.125V11.375H13.75V10.125H15V9.5H13.75ZM8.125 9.5V10.75H9.893C9.76324 11.1153 9.52367 11.4315 9.20715 11.6553C8.89063 11.8791 8.51264 11.9995 8.125 12C7.62788 11.9995 7.15128 11.8018 6.79976 11.4502C6.44824 11.0987 6.25053 10.6221 6.25 10.125C6.25 9.091 7.091 8.25 8.125 8.25C8.573 8.25 9.005 8.41 9.339 8.703L10.161 7.76C9.59642 7.26905 8.87319 6.99909 8.125 7C7.29652 7.00106 6.50228 7.33064 5.91646 7.91646C5.33064 8.50228 5.00106 9.29653 5 10.125C5.00106 10.9535 5.33064 11.7477 5.91646 12.3335C6.50228 12.9194 7.29652 13.2489 8.125 13.25C8.95348 13.2489 9.74772 12.9194 10.3335 12.3335C10.9194 11.7477 11.2489 10.9535 11.25 10.125V9.5H8.125Z" fill="white"/>
<path d="M4 2C3.46957 2 2.96086 2.21071 2.58579 2.58579C2.21071 2.96086 2 3.46957 2 4V16C2 16.5304 2.21071 17.0391 2.58579 17.4142C2.96086 17.7893 3.46957 18 4 18H16C16.5304 18 17.0391 17.7893 17.4142 17.4142C17.7893 17.0391 18 16.5304 18 16V4C18 3.46957 17.7893 2.96086 17.4142 2.58579C17.0391 2.21071 16.5304 2 16 2H4ZM4 0H16C17.0609 0 18.0783 0.421427 18.8284 1.17157C19.5786 1.92172 20 2.93913 20 4V16C20 17.0609 19.5786 18.0783 18.8284 18.8284C18.0783 19.5786 17.0609 20 16 20H4C2.93913 20 1.92172 19.5786 1.17157 18.8284C0.421427 18.0783 0 17.0609 0 16V4C0 2.93913 0.421427 1.92172 1.17157 1.17157C1.92172 0.421427 2.93913 0 4 0Z" fill="white"/>
</svg>
