<svg width="24" height="24" viewBox="0 0 24 24" fill="none" xmlns="http://www.w3.org/2000/svg">
<path d="M12 3.83931C14.6701 3.83931 14.9863 3.84968 16.0408 3.89872C17.0158 3.94418 17.5453 4.11046 17.8977 4.25025C18.3645 4.43543 18.6976 4.65665 19.0475 5.01384C19.3975 5.37103 19.6141 5.71108 19.7955 6.1875C19.9325 6.54724 20.0954 7.08777 20.1399 8.08295C20.188 9.15939 20.1981 9.48221 20.1981 12.2078C20.1981 14.9334 20.188 15.2562 20.1399 16.3326C20.0954 17.3278 19.9325 17.8683 19.7955 18.228C19.6141 18.7044 19.3974 19.0446 19.0475 19.4018C18.6976 19.759 18.3645 19.9802 17.8977 20.1653C17.5453 20.3051 17.0158 20.4714 16.0408 20.5168C14.9865 20.5659 14.6702 20.5763 12 20.5763C9.32969 20.5763 9.01344 20.5659 7.95914 20.5168C6.98414 20.4713 6.45469 20.3051 6.10227 20.1653C5.63555 19.9802 5.30234 19.759 4.95242 19.4018C4.6025 19.0445 4.38578 18.7044 4.20445 18.228C4.0675 17.8684 3.90453 17.3278 3.86008 16.3326C3.81195 15.2562 3.8018 14.9334 3.8018 12.2078C3.8018 9.48221 3.81195 9.15939 3.86008 8.08303C3.90461 7.08777 4.0675 6.54724 4.20445 6.1875C4.38578 5.71108 4.6025 5.37103 4.95242 5.01384C5.30242 4.65657 5.63555 4.43543 6.10227 4.25025C6.45461 4.11046 6.98414 3.94418 7.95914 3.89872C9.01359 3.84968 9.32984 3.83931 12 3.83931V3.83931ZM12 2C9.28414 2 8.94359 2.01172 7.87703 2.06141C6.81258 2.11101 6.08562 2.28358 5.44961 2.53591C4.79195 2.79676 4.2343 3.14582 3.67836 3.71331C3.12242 4.2808 2.78055 4.85004 2.525 5.52128C2.27773 6.17059 2.10875 6.91265 2.06016 7.99913C2.01148 9.08786 2 9.43548 2 12.2078C2 14.98 2.01148 15.3277 2.06016 16.4164C2.10875 17.503 2.27773 18.245 2.525 18.8942C2.78047 19.5655 3.12242 20.1348 3.67836 20.7023C4.2343 21.2698 4.79195 21.6188 5.44961 21.8796C6.0857 22.132 6.81258 22.3045 7.87695 22.3541C8.94359 22.4038 9.28414 22.4155 12 22.4155C14.7159 22.4155 15.0564 22.4038 16.123 22.3541C17.1873 22.3045 17.9143 22.132 18.5503 21.8796C19.208 21.6188 19.7656 21.2698 20.3216 20.7023C20.8775 20.1348 21.2195 19.5656 21.475 18.8942C21.7222 18.2449 21.8912 17.503 21.9398 16.4165C21.9885 15.3277 22 14.98 22 12.2078C22 9.43548 21.9885 9.08786 21.9398 7.99913C21.8912 6.91265 21.7222 6.17059 21.475 5.52136C21.2195 4.85004 20.8775 4.2808 20.3216 3.71331C19.7656 3.14582 19.208 2.79668 18.5504 2.53591C17.9143 2.28358 17.1873 2.11101 16.123 2.06141C15.0564 2.01172 14.7159 2 12 2ZM12 6.96592C9.16391 6.96592 6.86484 9.31291 6.86484 12.2078C6.86484 15.1028 9.16391 17.4496 12 17.4496C14.836 17.4496 17.1352 15.1028 17.1352 12.2078C17.1352 9.31283 14.836 6.96592 12 6.96592V6.96592ZM12 15.6104C10.1591 15.6104 8.66664 14.0869 8.66664 12.2078C8.66664 10.3286 10.1591 8.80515 12 8.80515C13.8409 8.80515 15.3334 10.3286 15.3334 12.2078C15.3334 14.0869 13.8409 15.6104 12 15.6104ZM18.538 6.75881C18.538 7.43539 18.0008 7.98374 17.338 7.98374C16.6752 7.98374 16.138 7.43539 16.138 6.75881C16.138 6.08231 16.6752 5.53388 17.338 5.53388C18.0008 5.53388 18.538 6.08231 18.538 6.75881V6.75881Z" fill="white"/>
</svg>
