<svg width="29" height="17" viewBox="0 0 29 17" fill="none" xmlns="http://www.w3.org/2000/svg">
<path d="M3.75293 8.59082L3.7666 8.71387C3.55697 8.93717 3.3291 9.10579 3.08301 9.21973C2.84147 9.33366 2.58398 9.39062 2.31055 9.39062C1.79102 9.39062 1.38314 9.23796 1.08691 8.93262C0.79069 8.62272 0.642578 8.19661 0.642578 7.6543C0.642578 7.20768 0.758789 6.77474 0.991211 6.35547C1.22819 5.9362 1.5791 5.52832 2.04395 5.13184C2.44954 4.79004 2.91667 4.52799 3.44531 4.3457C3.97852 4.15885 4.53451 4.06543 5.11328 4.06543C5.97005 4.06543 6.67871 4.2819 7.23926 4.71484C7.7998 5.14779 8.08008 5.68783 8.08008 6.33496C8.08008 6.77246 7.92969 7.16439 7.62891 7.51074C7.32812 7.8571 6.87695 8.16016 6.27539 8.41992H6.41211C7.05469 8.41992 7.56283 8.59766 7.93652 8.95312C8.31022 9.30404 8.49707 9.78027 8.49707 10.3818C8.49707 11.0837 8.27376 11.6989 7.82715 12.2275C7.38053 12.7516 6.86784 13.0137 6.28906 13.0137C6.00195 13.0137 5.76042 12.9339 5.56445 12.7744C5.37305 12.6104 5.27734 12.4144 5.27734 12.1865C5.27734 12.0589 5.30697 11.9564 5.36621 11.8789C5.42546 11.7969 5.49837 11.7559 5.58496 11.7559C5.59863 11.7559 5.61458 11.7581 5.63281 11.7627C5.65104 11.7673 5.66699 11.7741 5.68066 11.7832L5.96094 11.9199C5.89258 12.0065 5.84245 12.0863 5.81055 12.1592C5.7832 12.2275 5.76953 12.3027 5.76953 12.3848C5.76953 12.5352 5.81966 12.6582 5.91992 12.7539C6.02018 12.8451 6.1569 12.8906 6.33008 12.8906C6.70378 12.8906 7.02279 12.7061 7.28711 12.3369C7.55143 11.9632 7.68359 11.4984 7.68359 10.9424C7.68359 10.2314 7.51725 9.66406 7.18457 9.24023C6.85189 8.81641 6.40755 8.60449 5.85156 8.60449H5.75586V8.47461C6.2526 8.36979 6.6377 8.14648 6.91113 7.80469C7.18457 7.46289 7.32129 7.03451 7.32129 6.51953C7.32129 5.82227 7.09342 5.264 6.6377 4.84473C6.18652 4.4209 5.58496 4.20898 4.83301 4.20898C4.42741 4.20898 4.01953 4.27962 3.60938 4.4209C3.19922 4.55762 2.86426 4.73763 2.60449 4.96094C2.22624 5.27995 1.93229 5.64225 1.72266 6.04785C1.51758 6.44889 1.41504 6.85677 1.41504 7.27148C1.41504 7.78646 1.53809 8.21029 1.78418 8.54297C2.03483 8.87109 2.34928 9.03516 2.72754 9.03516C2.8916 9.03516 3.05794 8.9987 3.22656 8.92578C3.39974 8.85286 3.5752 8.74121 3.75293 8.59082ZM6.00879 5.11816C5.79004 5.30501 5.6237 5.56478 5.50977 5.89746C5.40039 6.23014 5.3457 6.62435 5.3457 7.08008C5.3457 7.44466 5.37077 7.91862 5.4209 8.50195C5.47559 9.08073 5.50293 9.47949 5.50293 9.69824C5.50293 10.6325 5.18848 11.4209 4.55957 12.0635C3.93066 12.7061 3.1582 13.0273 2.24219 13.0273C1.75456 13.0273 1.35579 12.9111 1.0459 12.6787C0.74056 12.4417 0.587891 12.1432 0.587891 11.7832C0.587891 11.5964 0.638021 11.4391 0.738281 11.3115C0.838542 11.1794 0.957031 11.1133 1.09375 11.1133C1.11654 11.1133 1.14388 11.1178 1.17578 11.127C1.18945 11.1315 1.19857 11.1361 1.20312 11.1406L1.73633 11.3594C1.53581 11.5143 1.39453 11.6533 1.3125 11.7764C1.23047 11.8949 1.18945 12.0225 1.18945 12.1592C1.18945 12.387 1.28288 12.5671 1.46973 12.6992C1.66113 12.8268 1.92318 12.8906 2.25586 12.8906C3.0306 12.8906 3.61165 12.665 3.99902 12.2139C4.38639 11.7627 4.58008 11.0814 4.58008 10.1699C4.58008 10.1016 4.57324 9.88509 4.55957 9.52051C4.5459 9.15592 4.53906 8.8278 4.53906 8.53613C4.53906 7.68392 4.64844 6.98665 4.86719 6.44434C5.09049 5.89746 5.45052 5.42806 5.94727 5.03613L6.00879 5.11816ZM13.7463 9.11035C14.1063 8.80046 14.3706 8.50651 14.5392 8.22852C14.7124 7.94596 14.799 7.66569 14.799 7.3877C14.799 7.05957 14.7238 6.80208 14.5734 6.61523C14.423 6.42839 14.2179 6.33496 13.9582 6.33496C13.744 6.33496 13.5503 6.43978 13.3771 6.64941C13.2039 6.85905 13.1173 7.10514 13.1173 7.3877C13.1173 7.611 13.172 7.87305 13.2814 8.17383C13.3908 8.47461 13.5457 8.78678 13.7463 9.11035ZM14.8537 12.2275C14.5255 11.79 14.227 11.3662 13.9582 10.9561C13.6938 10.5413 13.45 10.1266 13.2267 9.71191C12.9806 9.91699 12.7961 10.1312 12.673 10.3545C12.55 10.5778 12.4884 10.8102 12.4884 11.0518C12.4884 11.4665 12.632 11.8402 12.9191 12.1729C13.2062 12.501 13.5298 12.665 13.8898 12.665C14.022 12.665 14.1701 12.6286 14.3341 12.5557C14.4982 12.4782 14.6714 12.3688 14.8537 12.2275ZM14.9357 12.3301C14.644 12.5534 14.3569 12.722 14.0744 12.8359C13.7964 12.9453 13.5252 13 13.2609 13C12.8507 13 12.5158 12.8792 12.256 12.6377C12.0008 12.3916 11.8732 12.0726 11.8732 11.6807C11.8732 11.3708 11.9803 11.0404 12.1945 10.6895C12.4087 10.3385 12.73 9.9694 13.1584 9.58203C12.9943 9.23568 12.869 8.91439 12.7824 8.61816C12.6958 8.31738 12.6525 8.04622 12.6525 7.80469C12.6525 7.33529 12.8097 6.94108 13.1242 6.62207C13.4432 6.2985 13.8328 6.13672 14.2931 6.13672C14.5985 6.13672 14.8491 6.22103 15.0451 6.38965C15.2456 6.55827 15.3459 6.77018 15.3459 7.02539C15.3459 7.30339 15.216 7.62695 14.9562 7.99609C14.6964 8.36523 14.3114 8.77311 13.8009 9.21973C14.0288 9.65267 14.2726 10.0788 14.5324 10.498C14.7967 10.9128 15.0815 11.3275 15.3869 11.7422C15.5965 11.5052 15.7537 11.2682 15.8586 11.0312C15.9634 10.7943 16.0158 10.5596 16.0158 10.3271C16.0158 10.1266 15.9679 9.96712 15.8722 9.84863C15.7811 9.73014 15.6558 9.6709 15.4963 9.6709C15.4461 9.6709 15.3823 9.68001 15.3048 9.69824C15.2274 9.71191 15.1385 9.7347 15.0382 9.7666L15.2707 9.43164C15.3299 9.36784 15.396 9.31999 15.4689 9.28809C15.5464 9.25163 15.6261 9.2334 15.7082 9.2334C15.9269 9.2334 16.0978 9.29948 16.2209 9.43164C16.3439 9.55924 16.4054 9.74154 16.4054 9.97852C16.4054 10.252 16.328 10.5436 16.173 10.8535C16.0181 11.1634 15.7834 11.4915 15.4689 11.8379C15.6694 12.0749 15.8449 12.2458 15.9953 12.3506C16.1457 12.4554 16.2869 12.5078 16.4191 12.5078C16.5421 12.5078 16.6515 12.4577 16.7472 12.3574C16.8475 12.2526 16.9728 12.0475 17.1232 11.7422L17.2326 11.7969C17.0366 12.1934 16.8338 12.4941 16.6242 12.6992C16.4191 12.8997 16.2117 13 16.0021 13C15.8335 13 15.658 12.943 15.4757 12.8291C15.298 12.7152 15.118 12.5488 14.9357 12.3301ZM24.1634 12.1182C23.8581 12.4463 23.5823 12.6833 23.3363 12.8291C23.0947 12.9704 22.8532 13.041 22.6116 13.041C22.0146 13.041 21.5224 12.7334 21.1351 12.1182C20.7477 11.5029 20.554 10.7008 20.554 9.71191C20.554 8.75488 20.7545 7.8776 21.1556 7.08008C21.5566 6.28255 22.1855 5.51237 23.0423 4.76953C22.7734 4.91992 22.5137 5.03385 22.263 5.11133C22.0169 5.1888 21.7822 5.22754 21.5589 5.22754C21.4359 5.22754 21.3083 5.20931 21.1761 5.17285C21.0439 5.13184 20.8913 5.06576 20.7181 4.97461C20.6269 4.92904 20.4948 4.85384 20.3216 4.74902C19.834 4.46191 19.4398 4.31836 19.139 4.31836C18.8154 4.31836 18.5146 4.44368 18.2366 4.69434C17.9541 4.94499 17.8128 5.21615 17.8128 5.50781C17.8128 5.74479 17.8812 5.9362 18.0179 6.08203C18.1546 6.22331 18.3369 6.29395 18.5648 6.29395C18.7972 6.29395 18.9954 6.2347 19.1595 6.11621C19.3236 5.99316 19.4056 5.85189 19.4056 5.69238C19.4056 5.64681 19.3919 5.56706 19.3646 5.45312C19.36 5.42578 19.3555 5.40299 19.3509 5.38477C19.3646 5.38021 19.3782 5.37793 19.3919 5.37793C19.4056 5.37337 19.4284 5.37109 19.4603 5.37109C19.5605 5.37109 19.6403 5.40755 19.6995 5.48047C19.7633 5.55339 19.7952 5.64681 19.7952 5.76074C19.7952 6.00228 19.7018 6.19824 19.515 6.34863C19.3281 6.49902 19.0866 6.57422 18.7904 6.57422C18.4668 6.57422 18.2002 6.48079 17.9905 6.29395C17.7764 6.10254 17.6693 5.86556 17.6693 5.58301C17.6693 5.16829 17.8561 4.81738 18.2298 4.53027C18.5989 4.23861 19.0615 4.09277 19.6175 4.09277C19.9639 4.09277 20.3968 4.23405 20.9163 4.5166C21.4404 4.7946 21.8141 4.93359 22.0374 4.93359C22.2243 4.93359 22.4271 4.89486 22.6458 4.81738C22.8646 4.73991 23.1243 4.61686 23.4251 4.44824L23.4525 4.50293C22.7871 5.13184 22.2949 5.83366 21.9759 6.6084C21.6614 7.38314 21.5042 8.27181 21.5042 9.27441C21.5042 10.3271 21.6364 11.1702 21.9007 11.8037C22.1696 12.4326 22.5182 12.7471 22.9466 12.7471C23.1152 12.7471 23.2907 12.6878 23.473 12.5693C23.6598 12.4508 23.8672 12.264 24.095 12.0088C24.0221 11.79 23.9674 11.5485 23.931 11.2842C23.8991 11.0199 23.8831 10.7008 23.8831 10.3271C23.8831 9.91243 23.8922 9.48633 23.9105 9.04883C23.9333 8.61133 23.9629 8.16016 23.9993 7.69531C24.0996 7.61784 24.2568 7.49707 24.471 7.33301C24.6852 7.16439 24.831 7.05046 24.9085 6.99121V7.06641C24.9085 7.17122 24.8835 7.56543 24.8333 8.24902C24.7877 8.93262 24.765 9.5638 24.765 10.1426C24.765 11.0586 24.8379 11.7467 24.9837 12.207C25.1341 12.6628 25.3551 12.8906 25.6468 12.8906C25.8336 12.8906 26.0296 12.8154 26.2347 12.665C26.4443 12.5146 26.6403 12.305 26.8226 12.0361C27.1051 11.6305 27.3193 11.1475 27.4652 10.5869C27.6155 10.0218 27.6907 9.41113 27.6907 8.75488C27.6907 7.96191 27.57 7.22591 27.3284 6.54688C27.0869 5.86328 26.7383 5.27539 26.2825 4.7832C26.1367 4.6237 25.9772 4.50065 25.804 4.41406C25.6354 4.32292 25.4713 4.27734 25.3118 4.27734C25.0885 4.27734 24.9085 4.34115 24.7718 4.46875C24.6396 4.59635 24.5736 4.76497 24.5736 4.97461C24.5736 5.19336 24.6488 5.38477 24.7991 5.54883C24.9541 5.71289 25.2321 5.89062 25.6331 6.08203C26.0797 6.29622 26.3965 6.52865 26.5833 6.7793C26.7747 7.02995 26.8704 7.33529 26.8704 7.69531C26.8704 7.79102 26.8682 7.86849 26.8636 7.92773C26.8636 7.98698 26.859 8.0485 26.8499 8.1123H26.7816C26.7314 7.76595 26.6107 7.47428 26.4193 7.2373C26.2279 6.99577 25.8769 6.73372 25.3665 6.45117C24.9381 6.20508 24.6579 5.99772 24.5257 5.8291C24.3981 5.65592 24.3343 5.44629 24.3343 5.2002C24.3343 4.88118 24.4437 4.61686 24.6624 4.40723C24.8857 4.19759 25.1683 4.09277 25.5101 4.09277C25.8382 4.09277 26.1777 4.20215 26.5286 4.4209C26.8795 4.63965 27.1986 4.94271 27.4857 5.33008C27.7044 5.63086 27.8753 6.00911 27.9984 6.46484C28.1214 6.92057 28.1829 7.41504 28.1829 7.94824C28.1829 8.78678 28.0918 9.53418 27.9095 10.1904C27.7318 10.8421 27.4583 11.4232 27.0892 11.9336C26.8157 12.3164 26.5469 12.5967 26.2825 12.7744C26.0228 12.9521 25.7516 13.041 25.4691 13.041C25.2093 13.041 24.97 12.9658 24.7513 12.8154C24.5371 12.6605 24.3411 12.4281 24.1634 12.1182Z" fill="white"/>
<path d="M6 1H23" stroke="white" stroke-width="0.5"/>
<path d="M6 16.5H23" stroke="white" stroke-width="0.5"/>
</svg>
