<svg width="20" height="21" viewBox="0 0 20 21" fill="none" xmlns="http://www.w3.org/2000/svg">
<path d="M10 1.83931C12.6701 1.83931 12.9863 1.84968 14.0408 1.89872C15.0158 1.94418 15.5453 2.11046 15.8977 2.25025C16.3645 2.43543 16.6976 2.65665 17.0475 3.01384C17.3975 3.37103 17.6141 3.71108 17.7955 4.1875C17.9325 4.54724 18.0954 5.08777 18.1399 6.08295C18.188 7.15939 18.1981 7.48221 18.1981 10.2078C18.1981 12.9334 18.188 13.2562 18.1399 14.3326C18.0954 15.3278 17.9325 15.8683 17.7955 16.228C17.6141 16.7044 17.3974 17.0446 17.0475 17.4018C16.6976 17.759 16.3645 17.9802 15.8977 18.1653C15.5453 18.3051 15.0158 18.4714 14.0408 18.5168C12.9865 18.5659 12.6702 18.5763 10 18.5763C7.32969 18.5763 7.01344 18.5659 5.95914 18.5168C4.98414 18.4713 4.45469 18.3051 4.10227 18.1653C3.63555 17.9802 3.30234 17.759 2.95242 17.4018C2.6025 17.0445 2.38578 16.7044 2.20445 16.228C2.0675 15.8684 1.90453 15.3278 1.86008 14.3326C1.81195 13.2562 1.8018 12.9334 1.8018 10.2078C1.8018 7.48221 1.81195 7.15939 1.86008 6.08303C1.90461 5.08777 2.0675 4.54724 2.20445 4.1875C2.38578 3.71108 2.6025 3.37103 2.95242 3.01384C3.30242 2.65657 3.63555 2.43543 4.10227 2.25025C4.45461 2.11046 4.98414 1.94418 5.95914 1.89872C7.01359 1.84968 7.32984 1.83931 10 1.83931ZM10 0C7.28414 0 6.94359 0.011723 5.87703 0.0614061C4.81258 0.111009 4.08562 0.283584 3.44961 0.535908C2.79195 0.796764 2.2343 1.14582 1.67836 1.71331C1.12242 2.2808 0.780547 2.85004 0.525 3.52128C0.277734 4.17059 0.10875 4.91265 0.0601562 5.99913C0.0114844 7.08786 0 7.43548 0 10.2078C0 12.98 0.0114844 13.3277 0.0601562 14.4164C0.10875 15.503 0.277734 16.245 0.525 16.8942C0.780469 17.5655 1.12242 18.1348 1.67836 18.7023C2.2343 19.2698 2.79195 19.6188 3.44961 19.8796C4.0857 20.132 4.81258 20.3045 5.87695 20.3541C6.94359 20.4038 7.28414 20.4155 10 20.4155C12.7159 20.4155 13.0564 20.4038 14.123 20.3541C15.1873 20.3045 15.9143 20.132 16.5503 19.8796C17.208 19.6188 17.7656 19.2698 18.3216 18.7023C18.8775 18.1348 19.2195 17.5656 19.475 16.8942C19.7222 16.2449 19.8913 15.503 19.9398 14.4165C19.9885 13.3277 20 12.98 20 10.2078C20 7.43548 19.9885 7.08786 19.9398 5.99913C19.8913 4.91265 19.7222 4.17059 19.475 3.52136C19.2195 2.85004 18.8775 2.2808 18.3216 1.71331C17.7656 1.14582 17.208 0.796684 16.5504 0.535908C15.9143 0.283584 15.1873 0.111009 14.123 0.0614061C13.0564 0.011723 12.7159 0 10 0ZM10 4.96592C7.16391 4.96592 4.86484 7.31291 4.86484 10.2078C4.86484 13.1028 7.16391 15.4496 10 15.4496C12.836 15.4496 15.1352 13.1028 15.1352 10.2078C15.1352 7.31283 12.836 4.96592 10 4.96592ZM10 13.6104C8.15906 13.6104 6.66664 12.0869 6.66664 10.2078C6.66664 8.32858 8.15906 6.80515 10 6.80515C11.8409 6.80515 13.3334 8.32858 13.3334 10.2078C13.3334 12.0869 11.8409 13.6104 10 13.6104ZM16.538 4.75881C16.538 5.43539 16.0008 5.98374 15.338 5.98374C14.6752 5.98374 14.138 5.43539 14.138 4.75881C14.138 4.08231 14.6752 3.53388 15.338 3.53388C16.0008 3.53388 16.538 4.08231 16.538 4.75881Z" fill="white"/>
</svg>
